<?xml version="1.0" encoding="UTF-8" standalone="no"?>
<!-- Created with Inkscape (http://www.inkscape.org/) -->

<svg
   width="45.785034mm"
   height="113.2977mm"
   viewBox="0 0 45.785034 113.2977"
   version="1.1"
   id="svg5"
   xml:space="preserve"
   sodipodi:docname="path1758.svg"
   inkscape:version="1.2.1 (9c6d41e410, 2022-07-14)"
   xmlns:inkscape="http://www.inkscape.org/namespaces/inkscape"
   xmlns:sodipodi="http://sodipodi.sourceforge.net/DTD/sodipodi-0.dtd"
   xmlns="http://www.w3.org/2000/svg"
   xmlns:svg="http://www.w3.org/2000/svg"><sodipodi:namedview
     id="namedview7"
     pagecolor="#ffffff"
     bordercolor="#000000"
     borderopacity="0.25"
     inkscape:showpageshadow="2"
     inkscape:pageopacity="0.0"
     inkscape:pagecheckerboard="0"
     inkscape:deskcolor="#d1d1d1"
     inkscape:document-units="mm"
     showgrid="false"
     inkscape:zoom="0.96797899"
     inkscape:cx="279.96476"
     inkscape:cy="202.48373"
     inkscape:window-width="1920"
     inkscape:window-height="1009"
     inkscape:window-x="-8"
     inkscape:window-y="-8"
     inkscape:window-maximized="1"
     inkscape:current-layer="layer1" /><defs
     id="defs2"><inkscape:path-effect
       effect="spiro"
       id="path-effect1760"
       is_visible="true"
       lpeversion="1" /></defs><g
     inkscape:label="Layer 1"
     inkscape:groupmode="layer"
     id="layer1"
     transform="translate(-83.297487,-100.83645)"><path
       style="fill:#000000;stroke-width:0.264583"
       d="m 87.057901,114.64415 c 1.804959,-5.50933 6.106151,-10.14656 11.46441,-12.36008 4.660709,-1.92536 10.138289,-1.99392 14.688779,0.17914 3.19572,1.5261 5.83201,4.06982 7.85353,6.97757 2.02153,2.90775 3.46281,6.17894 4.68567,9.50252 2.21433,6.01829 3.76415,12.41884 3.22437,18.80881 -0.44246,5.23787 -2.26384,10.24434 -3.94089,15.22617 -2.02119,6.00412 -3.8566,12.07917 -5.19481,18.27141 -1.26214,5.84028 -2.07915,11.77431 -2.50784,17.73402 -0.19749,2.74547 -0.31276,5.49667 -0.5374,8.24005 -0.17608,2.15026 -0.42109,4.30468 -0.97789,6.38904 -0.55679,2.08437 -1.43714,4.10639 -2.78387,5.7919 -1.91453,2.39615 -4.74765,4.02182 -7.77035,4.54165 -3.02271,0.51982 -6.20946,-0.055 -8.898274,-1.5306 -2.688814,-1.47555 -4.871362,-3.8322 -6.207745,-6.59282 -1.336383,-2.76062 -1.831576,-5.90995 -1.48551,-8.95744 0.406012,-3.57537 1.919025,-6.91814 2.86611,-10.38962 2.872464,-10.52884 0.434734,-21.78259 -3.22437,-32.06454 -1.24765,-3.50585 -2.638755,-6.96921 -3.58263,-10.56875 -2.52375,-9.62453 -1.688635,-20.09559 2.32871,-29.19843 z"
       id="path1758"
       inkscape:path-effect="#path-effect1760"
       inkscape:original-d="m 87.057901,114.64415 c 0.11915,-0.41824 7.64321,-8.23979 11.46441,-12.36008 3.821209,-4.120288 9.792789,0.11969 14.688779,0.17914 4.896,0.0594 8.35974,10.98699 12.5392,16.48009 4.17948,5.4931 2.14985,12.53947 3.22437,18.80881 1.07453,6.26933 -2.62699,10.15105 -3.94089,15.22617 -1.3139,5.07513 -3.46294,12.18121 -5.19481,18.27141 -1.73187,6.09021 -1.67163,11.82295 -2.50784,17.73402 -0.83621,5.91108 -0.358,5.49363 -0.5374,8.24005 -0.1794,2.74642 -2.50757,8.12089 -3.76176,12.18094 -1.25418,4.06005 -16.240979,-8.3592 -24.361879,-12.53921 -8.12089,-4.17999 1.911,-6.92615 2.86611,-10.38962 0.9551,-3.46347 -2.14932,-21.37609 -3.22437,-32.06454 -1.07505,-10.68844 -2.38816,-7.04557 -3.58263,-10.56875 -1.19447,-3.52319 1.55274,-19.46536 2.32871,-29.19843 z" /></g></svg>
